Trzecia ods┼éona Shreka.



Info o pliku:
Duration: 01:32:46.05, bitrate: 1685 kb/s
    Stream #0.0: Video: mpeg4, yuv420p, 720x400 [PAR 1:1 DAR 9:5], 23.98 fps
    Stream #0.1: Audio: ac3, 48000 Hz, 5.1, s16, 384 kb/s
